<svg xmlns="http://www.w3.org/2000/svg"  viewBox="0 0 64 64" width="64px" height="64px">
<linearGradient id="7ZiOD68KfhqoGNX6em99Ba" x1="32" x2="32" y1="58.313" y2="29.084" gradientTransform="matrix(1 0 0 -1 0 66)" gradientUnits="userSpaceOnUse">
<stop offset="0" stop-color="#6dc7ff"/>
<stop offset="1" stop-color="#e6abff"/>
</linearGradient>
<path fill="url(#7ZiOD68KfhqoGNX6em99Ba)" d="M55,28v-8.491c0-2.119-1.29-4.026-3.257-4.814L32,6.78l-19.983,8.011	C10.194,15.521,9,17.287,9,19.249V28l4,1.65v-6.36l3,1.36v10.36l3,1.37v-7.09l3,1.36v3.09l3,1.36v-4.81l3,1.36v2.81l4,1.822l4-1.822	v-2.81l3-1.36v4.81l3-1.36v-3.09l3-1.36v7.09l3-1.37V24.65l3-1.36v6.36L55,28z"/>
<linearGradient id="7ZiOD68KfhqoGNX6em99Bb" x1="32" x2="32" y1="1074.5" y2="1130.476" gradientTransform="translate(0 -1070)" gradientUnits="userSpaceOnUse">
<stop offset="0" stop-color="#1a6dff"/>
<stop offset="1" stop-color="#c822ff"/>
</linearGradient>
<path fill="url(#7ZiOD68KfhqoGNX6em99Bb)" d="M52.995,14.629L33.993,6.367c-1.268-0.551-2.72-0.551-3.985,0l-19.004,8.262	C9.18,15.423,8,17.222,8,19.212V44.97c0,1.99,1.18,3.789,3.005,4.583l18.202,7.914c0.888,0.386,1.841,0.579,2.793,0.579	s1.905-0.193,2.792-0.579l18.204-7.914C54.82,48.759,56,46.96,56,44.97V19.212C56,17.222,54.82,15.423,52.995,14.629z M30.806,8.201	C31.185,8.036,31.593,7.953,32,7.953c0.407,0,0.815,0.083,1.195,0.248l19.002,8.262c0.093,0.041,0.179,0.091,0.267,0.14	l-19.27,8.377c-0.758,0.33-1.63,0.33-2.39,0l-19.269-8.377c0.087-0.049,0.173-0.1,0.266-0.14L30.806,8.201z M11.803,47.719	C10.707,47.242,10,46.163,10,44.97V19.212c0-0.354,0.069-0.695,0.185-1.016l19.822,8.618c0.321,0.14,0.654,0.242,0.993,0.311V52	v3.944c-0.34-0.069-0.673-0.172-0.995-0.312L11.803,47.719z M54,44.97c0,1.193-0.707,2.272-1.802,2.749l-18.203,7.914h-0.001	c-0.321,0.14-0.655,0.242-0.994,0.312V52V27.125c0.339-0.069,0.671-0.171,0.992-0.311l19.823-8.619	C53.931,18.517,54,18.858,54,19.212V44.97z"/>
</svg>